PathFileType	4	(X/Y/Z)	C:/Users/opensim2020/Desktop/walking_exp_matlab/subject06_walking11_run.trc																																																																																																																																								
DataRate	CameraRate	NumFrames	NumMarkers	Units	OrigDataRate	OrigDataStartFrame	OrigNumFrames																																																																																																																																				
100	100	4	46	mm	100	225	106																																																																																																																																				
Frame#	Time	LKNE			RKNE			RFRM			RWRA			RWRB			RELB			RUPA			RSHO			LWRA			RFIN			RFHD			CLAV			RASI			RTHI			LSHO			LTHI			RBHD			C7			LTIB			LANK			LTOE			LBHD			RTIB			RBAK			LHEE			RANK			STRN			RHEE			RTOE			T10			LUPA			LFHD			LPSI			RPSI			LASI			LFRM			LWRB			LFIN			LELB			*39			*40			*41			*42			*43			*44			*45		
		X1	Y1	Z1	X2	Y2	Z2	X3	Y3	Z3	X4	Y4	Z4	X5	Y5	Z5	X6	Y6	Z6	X7	Y7	Z7	X8	Y8	Z8	X9	Y9	Z9	X10	Y10	Z10	X11	Y11	Z11	X12	Y12	Z12	X13	Y13	Z13	X14	Y14	Z14	X15	Y15	Z15	X16	Y16	Z16	X17	Y17	Z17	X18	Y18	Z18	X19	Y19	Z19	X20	Y20	Z20	X21	Y21	Z21	X22	Y22	Z22	X23	Y23	Z23	X24	Y24	Z24	X25	Y25	Z25	X26	Y26	Z26	X27	Y27	Z27	X28	Y28	Z28	X29	Y29	Z29	X30	Y30	Z30	X31	Y31	Z31	X32	Y32	Z32	X33	Y33	Z33	X34	Y34	Z34	X35	Y35	Z35	X36	Y36	Z36	X37	Y37	Z37	X38	Y38	Z38	X39	Y39	Z39	X40	Y40	Z40	X41	Y41	Z41	X42	Y42	Z42	X43	Y43	Z43	X44	Y44	Z44	X45	Y45	Z45	X46	Y46	Z46
																																																																																																																																											
40	0.39	106.13223	549.87122	193.31114	357.44388	548.10181	485.48474	449.53525	1174.91614	219.31494	330.21124	1238.42981	177.45099	342.14691	1183.24377	144.06963	529.64911	1193.21802	281.40457	489.04587	1295.50867	281.59143	352.23181	1444.89075	234.4915	23.50122	1178.96448	326.59555	294.40439	1235.37964	101.01846	262.48749	1670.83521	174.66	193.59288	1392.58423	219.77882	333.36832	975.65656	259.65448	380.48785	665.71338	433.10178	57.36297	1445.87891	306.4426	60.97225	689.84058	267.26208	267.22021	1623.9635	307.5412	210.64032	1481.62695	316.64322	132.03606	299.37341	165.59349	186.59131	134.29424	125.86436	207.94788	93.81195	-22.64239	138.02174	1628.37988	315.52356	353.09384	394.08209	710.08264	314.55612	1332.97266	393.75104	234.77151	127.13926	163.74608	312.70673	292.30954	862.52875	195.32875	1211.72473	201.48251	271.55789	318.66034	895.05554	298.80441	128.53133	851.32092	243.11513	1170.3717	397.52283	-27.85189	1341.87231	442.2467	130.96347	1681.04407	181.58925	150.43425	1035.50232	413.74799	315.73215	1034.89014	399.24359	123.6288	980.57397	267.89847	-42.93747	1181.09558	439.79752	2.14103	1116.20679	351.96353	17.97769	1108.75452	261.07468	-54.34566	1278.57935	526.28174	NaN	NaN	NaN	194.76459	1721.72095	278.04236	NaN	NaN	NaN	NaN	NaN	NaN	NaN	NaN	NaN	NaN	NaN	NaN	NaN	NaN	NaN
41	0.4	107.4006	544.74799	160.29419	356.64438	541.30652	436.46271	452.10785	1172.11975	186.63902	331.69791	1230.72852	140.817	346.10645	1175.36694	108.51778	531.03156	1194.37793	248.93787	489.2662	1296.15198	247.39934	350.91623	1443.06445	197.46964	23.27567	1174.20081	284.16467	297.23575	1225.17493	63.83882	260.48843	1669.52637	138.98259	192.41357	1390.50867	182.16206	334.36646	975.18018	221.72858	379.73471	660.54523	387.37613	55.11713	1442.52734	268.48419	60.54219	684.12006	233.82912	264.49469	1621.47583	271.496	208.2838	1479.27222	279.29553	134.08006	294.37665	132.84335	188.70221	129.82431	93.43518	203.38684	87.05973	-55.32395	135.213	1625.42908	278.5975	352.33884	393.03375	664.22363	312.5592	1331.53137	356.9646	238.90059	123.65356	129.14226	312.5058	297.57523	820.91876	194.84952	1209.88452	163.55313	270.69684	324.45679	854.32837	300.24222	135.35164	808.57477	242.38094	1167.59204	360.04404	-31.08134	1335.78308	402.14316	128.88309	1679.11816	145.28932	150.02359	1032.83984	375.27536	315.62985	1032.68237	361.82425	124.36428	978.27692	229.66354	-45.3108	1174.31067	396.18265	1.49724	1110.63562	308.19562	19.43778	1105.04895	217.27946	-58.63761	1270.35095	484.2392	NaN	NaN	NaN	191.86647	1719.29956	242.35483	NaN	NaN	NaN	NaN	NaN	NaN	NaN	NaN	NaN	NaN	NaN	NaN	NaN	NaN	NaN
42	0.41	108.20181	539.28973	126.77839	356.09711	532.89331	385.60587	455.20163	1168.22559	154.08641	333.67444	1220.7594	104.11859	350.51462	1165.08496	73.94525	532.14459	1194.89233	217.65733	488.69473	1296.16833	214.14854	349.43579	1440.474	160.69394	23.02947	1168.0321	240.58183	301.46524	1211.71936	26.60315	258.7088	1667.10645	103.35197	191.34828	1387.41138	144.57848	335.43796	973.7124	184.32771	379.22165	653.9411	340.79477	53.01729	1438.16003	230.42892	61.65894	678.61884	199.55562	261.83517	1618.06238	235.53947	205.91325	1475.95959	242.26672	136.4617	288.25558	103.18945	191.18022	123.65273	65.44407	200.6535	77.94987	-82.54435	132.45714	1621.64368	241.67365	351.90564	390.03412	615.46442	310.40289	1329.55518	320.38419	242.68629	118.44966	99.06411	312.90891	302.1539	777.02728	194.78326	1207.05164	126.18076	270.71146	329.43362	811.5105	302.26773	141.89392	762.98022	241.79834	1164.44946	322.65857	-34.61041	1328.48474	361.49622	127.04169	1676.42529	108.61493	150.03577	1029.58411	336.99606	315.74478	1029.52295	324.34763	124.87336	975.03125	191.42856	-48.1054	1165.93799	351.23514	0.9868	1104.7467	262.6994	20.92586	1100.16736	172.54535	-63.50614	1260.32568	441.02185	NaN	NaN	NaN	189.19444	1715.92578	206.63802	NaN	NaN	NaN	NaN	NaN	NaN	NaN	NaN	NaN	NaN	NaN	NaN	NaN	NaN	NaN
43	0.42	108.5424	533.31976	93.3157	355.76083	523.26074	333.22012	458.45767	1162.90503	122.49346	336.61154	1209.21375	67.02666	355.96735	1152.71167	39.85645	532.74017	1194.64734	187.47119	488.15518	1295.93884	181.7952	347.79562	1437.12305	124.3	22.947	1160.79211	196.51086	306.66394	1195.6582	-10.52041	257.21472	1663.54761	67.83764	190.41254	1383.30176	106.99845	336.58652	971.05853	147.16896	378.89255	646.13031	293.59793	51.00613	1432.65808	192.22687	63.68482	673.42511	164.78168	259.19019	1613.62476	199.79041	203.38989	1471.64148	205.14827	138.61166	281.37112	76.22895	193.32011	116.29124	41.81755	200.51512	67.63537	-104.7497	129.81424	1616.97522	204.76892	351.703	386.08209	564.84308	308.12177	1326.88525	284.19302	245.11667	111.74172	74.37206	313.68173	306.15768	730.40967	194.81384	1202.96021	88.69016	271.02438	333.70566	766.00586	305.24603	147.7236	714.64893	241.31805	1161.13123	285.64642	-38.4442	1319.82898	320.10434	125.52168	1672.57471	72.02923	150.64317	1025.57324	299.25687	316.35052	1025.4021	287.33704	125.15721	970.98383	153.12415	-50.897	1155.99792	304.89249	0.82379	1096.66223	216.89354	22.56833	1094.17761	126.91051	-68.92596	1248.56885	396.52936	NaN	NaN	NaN	186.69447	1711.60889	170.80638	NaN	NaN	NaN	NaN	NaN	NaN	NaN	NaN	NaN	NaN	NaN	NaN	NaN	NaN	NaN
